<svg xmlns="http://www.w3.org/2000/svg" viewBox="0 0 24 24" fill="#fff"><path d="M12 2.163c3.204 0 3.584.012 4.85.07 1.366.062 2.633.334 3.608 1.308.974.974 1.246 2.242 1.308 3.608.058 1.266.07 1.646.07 4.85s-.012 3.584-.07 4.85c-.062 1.366-.334 2.633-1.308 3.608-.974.974-2.242 1.246-3.608 1.308-1.266.058-1.646.07-4.85.07s-3.584-.012-4.85-.07c-1.366-.062-2.633-.334-3.608-1.308-.974-.974-1.246-2.242-1.308-3.608C2.175 15.647 2.163 15.267 2.163 12s.012-3.584.07-4.85c.062-1.366.334-2.633 1.308-3.608.974-.974 2.242-1.246 3.608-1.308C8.416 2.175 8.796 2.163 12 2.163zm0-2.163C8.741 0 8.332.013 7.052.072 5.771.131 4.659.363 3.678 1.344c-.98.98-1.213 2.092-1.272 3.373C2.013 5.668 2 6.077 2 12c0 5.923.013 6.332.072 7.613.059 1.281.292 2.393 1.272 3.373.981.981 2.093 1.213 3.374 1.272C8.332 23.987 8.741 24 12 24s3.668-.013 4.948-.072c1.281-.059 2.393-.292 3.374-1.272.98-.98 1.213-2.092 1.272-3.373.059-1.281.072-1.69.072-7.613 0-5.923-.013-6.332-.072-7.613-.059-1.281-.292-2.393-1.272-3.373-.981-.981-2.093-1.213-3.374-1.272C15.668.013 15.259 0 12 0zm0 5.838a6.162 6.162 0 1 0 0 12.324 6.162 6.162 0 0 0 0-12.324zm0 10.162a3.999 3.999 0 1 1 0-7.998 3.999 3.999 0 0 1 0 7.998zm6.406-11.845a1.44 1.44 0 1 0 0 2.88 1.44 1.44 0 0 0 0-2.88z"/></svg>
