<svg xmlns="http://www.w3.org/2000/svg" viewBox="0 0 24 24" fill="#fff"><path d="M19 0h-14c-2.761 0-5 2.239-5 5v14c0 2.761 2.239 5 5 5h14c2.761 0 5-2.239 5-5v-14c0-2.761-2.239-5-5-5zm-11.5 19h-2v-9h2v9zm-1-10.268c-.69 0-1.25-.56-1.25-1.25s.56-1.25 1.25-1.25 1.25.56 1.25 1.25-.56 1.25-1.25 1.25zm13.5 10.268h-2v-4.604c0-1.098-.021-2.511-1.531-2.511-1.531 0-1.767 1.197-1.767 2.434v4.681h-2v-9h1.922v1.233h.027c.267-.504.92-1.034 1.893-1.034 2.025 0 2.398 1.334 2.398 3.068v5.733zm-10.5-9h-2v-9h2v9zm-1-10.268c-.69 0-1.25-.56-1.25-1.25s.56-1.25 1.25-1.25 1.25.56 1.25 1.25-.56 1.25-1.25 1.25zm13.5 10.268h-2v-4.604c0-1.098-.021-2.511-1.531-2.511-1.531 0-1.767 1.197-1.767 2.434v4.681h-2v-9h1.922v1.233h.027c.267-.504.92-1.034 1.893-1.034 2.025 0 2.398 1.334 2.398 3.068v5.733z"/></svg>
