<svg xmlns="http://www.w3.org/2000/svg" viewBox="0 0 48 48" fill="#fff"><g><path d="M41.5,24.1c-0.1-2.1-1.1-3.7-2.9-4.7c-1.2-0.7-2.6-1-4.1-1c-0.2,0-0.3,0-0.5,0c-0.2,0-0.3,0-0.5,0c-1.5,0-2.9,0.3-4.1,1c-1.8,1-2.8,2.6-2.9,4.7c-0.1,2.1,0.7,3.7,2.3,4.7c1.2,0.7,2.6,1,4.1,1c0.2,0,0.3,0,0.5,0c0.2,0,0.3,0,0.5,0c1.5,0,2.9-0.3,4.1-1C40.8,27.8,41.6,26.2,41.5,24.1z M24,0C10.7,0,0,10.7,0,24c0,13.3,10.7,24,24,24c13.3,0,24-10.7,24-24C48,10.7,37.3,0,24,0z M36.7,32.2c-1.7,1-3.7,1.5-5.7,1.5c-2,0-4-0.5-5.7-1.5c-2.5-1.5-4-3.7-4.1-6.5c-0.1-2.8,1.1-5,3.5-6.5c1.7-1,3.7-1.5,5.7-1.5c2,0,4,0.5,5.7,1.5c2.5,1.5,4,3.7,4.1,6.5C40.7,28.5,39.3,30.7,36.7,32.2z"/></g></svg>
